<?xml version="1.0" standalone="no"?>
<svg viewBox="0 0 200 200" xmlns="http://www.w3.org/2000/svg">
  <path fill="#00DF9A" d="M40.5,-66.9C51.7,-63.7,59.3,-51.2,60.1,-38.5C61,-25.8,55,-12.9,52.3,-1.6C49.6,9.8,50.2,19.5,47.9,29.7C45.5,39.8,40.3,50.3,31.8,56.6C23.4,62.9,11.7,65,-0.3,65.6C-12.4,66.2,-24.7,65.2,-36,60.6C-47.4,55.9,-57.6,47.5,-62.6,36.8C-67.5,26.1,-67.2,13.1,-68.7,-0.9C-70.2,-14.8,-73.6,-29.7,-68.1,-39.3C-62.5,-48.9,-47.9,-53.3,-35.1,-55.6C-22.2,-57.8,-11.1,-57.9,1.8,-60.9C14.7,-64,29.3,-70.1,40.5,-66.9Z" transform="translate(100 100)" />
</svg>
